<svg width="237" height="90" viewBox="0 0 237 90" fill="none" xmlns="http://www.w3.org/2000/svg">
<path d="M190.702 9.744L190.882 8.736H198.982L198.802 9.744L195.634 10.068L186.094 18.78L193.15 31.668L196.426 31.992L196.246 33H187.714L187.894 31.992L191.134 31.704L184.69 20.04L181.018 23.424C180.778 24.816 180.526 26.196 180.262 27.564C180.022 28.932 179.794 30.3 179.578 31.668L183.25 31.992L183.07 33H173.89L174.106 31.992L177.598 31.704L179.83 19.968C180.142 18.312 180.442 16.656 180.73 15C181.018 13.344 181.282 11.688 181.522 10.032L177.886 9.744L178.066 8.736H187.246L187.03 9.744L183.502 10.032L181.306 21.768L194.086 10.068L190.702 9.744ZM192.409 40.092C192.481 39.708 192.649 39.42 192.913 39.228C193.177 39.06 193.489 38.976 193.849 38.976C194.185 38.976 194.509 39.048 194.821 39.192C195.133 39.336 195.481 39.552 195.865 39.84L196.333 40.2C197.437 39.576 198.493 38.76 199.501 37.752C200.605 36.648 201.661 35.376 202.669 33.936C202.573 32.064 202.453 30.396 202.309 28.932C202.189 27.444 202.045 26.04 201.877 24.72C201.733 23.376 201.553 21.984 201.337 20.544C201.193 19.56 201.061 18.828 200.941 18.348C200.821 17.844 200.677 17.508 200.509 17.34C200.365 17.172 200.161 17.088 199.897 17.088C199.561 17.088 199.177 17.256 198.745 17.592C198.337 17.928 197.809 18.672 197.161 19.824L196.549 19.464C197.197 18.024 197.857 17.016 198.529 16.44C199.225 15.84 199.921 15.54 200.617 15.54C201.289 15.54 201.793 15.792 202.129 16.296C202.489 16.8 202.753 17.832 202.921 19.392C203.161 21.408 203.353 23.436 203.497 25.476C203.665 27.516 203.797 29.676 203.893 31.956C205.285 29.532 206.485 27.276 207.493 25.188C208.501 23.076 209.221 21.276 209.653 19.788C210.037 18.564 210.349 17.652 210.589 17.052C210.829 16.428 211.045 16.008 211.237 15.792C211.429 15.576 211.645 15.468 211.885 15.468C212.485 15.468 212.785 15.744 212.785 16.296C212.785 16.56 212.749 16.836 212.677 17.124C212.605 17.388 212.449 17.76 212.209 18.24C211.897 18.936 211.561 19.632 211.201 20.328C210.865 21.024 210.421 21.9 209.869 22.956C209.149 24.348 208.489 25.608 207.889 26.736C207.289 27.84 206.713 28.884 206.161 29.868C205.609 30.828 205.021 31.8 204.397 32.784C203.725 33.816 203.053 34.776 202.381 35.664C201.733 36.552 200.989 37.452 200.149 38.364C199.237 39.324 198.289 40.128 197.305 40.776C196.345 41.424 195.481 41.748 194.713 41.748C194.089 41.748 193.573 41.592 193.165 41.28C192.757 40.992 192.505 40.596 192.409 40.092ZM216.376 33.468C215.896 33.468 215.488 33.312 215.152 33C214.816 32.688 214.648 32.244 214.648 31.668C214.648 31.332 214.672 30.996 214.72 30.66C214.792 30.324 214.876 29.868 214.972 29.292L217.852 14.964C218.092 13.812 218.32 12.672 218.536 11.544C218.752 10.392 218.944 9.24 219.112 8.088L215.188 7.944L215.296 7.224L220.804 6.18L221.2 6.504L216.664 28.896C216.568 29.28 216.484 29.664 216.412 30.048C216.364 30.432 216.34 30.744 216.34 30.984C216.34 31.608 216.676 31.92 217.348 31.92C217.852 31.92 218.44 31.656 219.112 31.128C219.784 30.6 220.492 29.892 221.236 29.004L221.776 29.436C221.032 30.516 220.216 31.464 219.328 32.28C218.464 33.072 217.48 33.468 216.376 33.468ZM232.464 16.584C231.672 16.584 230.856 16.848 230.016 17.376C229.2 17.88 228.444 18.576 227.748 19.464C227.052 20.352 226.464 21.348 225.984 22.452C225.528 23.556 225.264 24.696 225.192 25.872C228.408 24.96 230.808 23.868 232.392 22.596C233.976 21.324 234.768 20.028 234.768 18.708C234.768 18.012 234.552 17.484 234.12 17.124C233.712 16.764 233.16 16.584 232.464 16.584ZM228.828 33.468C227.892 33.468 227.028 33.252 226.236 32.82C225.444 32.388 224.808 31.704 224.328 30.768C223.848 29.808 223.608 28.56 223.608 27.024C223.608 25.584 223.86 24.192 224.364 22.848C224.868 21.48 225.552 20.244 226.416 19.14C227.28 18.036 228.264 17.16 229.368 16.512C230.496 15.864 231.672 15.54 232.896 15.54C233.88 15.54 234.684 15.792 235.308 16.296C235.932 16.776 236.244 17.508 236.244 18.492C236.244 19.98 235.344 21.48 233.544 22.992C231.768 24.48 228.972 25.752 225.156 26.808C225.204 28.56 225.6 29.856 226.344 30.696C227.112 31.512 228.12 31.92 229.368 31.92C230.448 31.92 231.396 31.644 232.212 31.092C233.052 30.54 233.796 29.844 234.444 29.004L235.02 29.436C234.252 30.612 233.352 31.584 232.32 32.352C231.288 33.096 230.124 33.468 228.828 33.468ZM89.1557 78L89.3357 76.992L92.7197 76.668L97.7597 55.068L94.3757 54.744L94.5917 53.736H99.9917L104.6 75.12L117.38 53.736H122.708L122.564 54.744L119.072 55.032L117.308 66.804C117.068 68.436 116.852 70.08 116.66 71.736C116.468 73.368 116.252 75 116.012 76.632L119.576 76.956L119.432 78H110.576L110.72 76.956L114.068 76.668L117.02 56.328L104.168 78H103.34L98.6237 56.544L93.9077 76.668L97.3637 76.992L97.1837 78H89.1557ZM124.886 73.248C124.886 74.568 125.126 75.516 125.606 76.092C126.086 76.644 126.698 76.92 127.442 76.92C128.378 76.92 129.314 76.548 130.25 75.804C131.21 75.036 132.302 73.932 133.526 72.492L135.614 62.736C134.942 62.256 134.222 62.016 133.454 62.016C132.614 62.016 131.762 62.232 130.898 62.664C130.058 63.096 129.266 63.684 128.522 64.428C127.442 65.532 126.566 66.876 125.894 68.46C125.222 70.02 124.886 71.616 124.886 73.248ZM134.534 78.468C134.078 78.468 133.682 78.312 133.346 78C133.01 77.712 132.842 77.268 132.842 76.668C132.842 76.212 132.866 75.804 132.914 75.444C132.986 75.06 133.082 74.592 133.202 74.04L133.238 73.86C132.206 75.18 131.138 76.284 130.034 77.172C128.93 78.036 127.814 78.468 126.686 78.468C125.798 78.468 124.982 78.132 124.238 77.46C123.518 76.788 123.158 75.636 123.158 74.004C123.158 72.78 123.374 71.544 123.806 70.296C124.238 69.024 124.814 67.812 125.534 66.66C126.278 65.484 127.118 64.44 128.054 63.528C128.99 62.616 129.974 61.896 131.006 61.368C132.038 60.816 133.058 60.54 134.066 60.54C134.906 60.54 135.626 60.864 136.226 61.512L137.27 60.396L137.702 60.684L134.822 73.896C134.726 74.28 134.642 74.676 134.57 75.084C134.498 75.468 134.462 75.816 134.462 76.128C134.462 76.416 134.558 76.62 134.75 76.74C134.942 76.86 135.17 76.92 135.434 76.92C136.01 76.92 136.646 76.644 137.342 76.092C138.038 75.54 138.71 74.832 139.358 73.968L139.97 74.436C139.25 75.516 138.422 76.464 137.486 77.28C136.574 78.072 135.59 78.468 134.534 78.468ZM143.628 74.292L146.22 62.088H142.08L142.26 61.188L146.544 60.9L147.876 56.076H149.1L148.092 60.9H152.952L152.772 62.232L147.804 62.088L145.32 73.896C145.224 74.28 145.14 74.664 145.068 75.048C144.996 75.432 144.96 75.756 144.96 76.02C144.96 76.62 145.284 76.92 145.932 76.92C146.484 76.92 147.096 76.668 147.768 76.164C148.44 75.636 149.148 74.916 149.892 74.004L150.432 74.436C149.688 75.516 148.86 76.464 147.948 77.28C147.036 78.072 146.028 78.468 144.924 78.468C144.468 78.468 144.072 78.324 143.736 78.036C143.424 77.748 143.268 77.352 143.268 76.848C143.268 76.464 143.292 76.104 143.34 75.768C143.388 75.408 143.484 74.916 143.628 74.292ZM153.968 78.216L153.716 78L157.352 59.964C157.592 58.812 157.82 57.672 158.036 56.544C158.252 55.392 158.456 54.24 158.648 53.088L154.688 52.944L154.796 52.224L160.34 51.18L160.7 51.504L158 64.752C158.864 63.912 159.752 63.18 160.664 62.556C161.6 61.932 162.5 61.44 163.364 61.08C164.228 60.72 164.984 60.54 165.632 60.54C166.4 60.54 166.976 60.756 167.36 61.188C167.768 61.596 167.972 62.172 167.972 62.916C167.972 63.492 167.9 64.056 167.756 64.608C167.636 65.16 167.504 65.772 167.36 66.444L165.596 73.896C165.5 74.304 165.404 74.712 165.308 75.12C165.212 75.504 165.164 75.828 165.164 76.092C165.164 76.644 165.464 76.92 166.064 76.92C166.616 76.92 167.228 76.656 167.9 76.128C168.596 75.6 169.304 74.892 170.024 74.004L170.564 74.436C169.844 75.516 169.016 76.464 168.08 77.28C167.144 78.072 166.136 78.468 165.056 78.468C164.576 78.468 164.18 78.324 163.868 78.036C163.58 77.772 163.436 77.424 163.436 76.992C163.436 76.536 163.472 76.128 163.544 75.768C163.64 75.408 163.76 74.916 163.904 74.292L165.668 66.876C165.788 66.276 165.908 65.7 166.028 65.148C166.148 64.596 166.208 64.104 166.208 63.672C166.208 63.072 166.088 62.652 165.848 62.412C165.608 62.172 165.248 62.052 164.768 62.052C163.952 62.052 162.98 62.352 161.852 62.952C160.748 63.528 159.38 64.512 157.748 65.904L156.812 70.512C156.572 71.76 156.32 73.008 156.056 74.256C155.816 75.504 155.588 76.752 155.372 78L153.968 78.216ZM181.733 61.584C180.941 61.584 180.125 61.848 179.285 62.376C178.469 62.88 177.713 63.576 177.017 64.464C176.321 65.352 175.733 66.348 175.253 67.452C174.797 68.556 174.533 69.696 174.461 70.872C177.677 69.96 180.077 68.868 181.661 67.596C183.245 66.324 184.037 65.028 184.037 63.708C184.037 63.012 183.821 62.484 183.389 62.124C182.981 61.764 182.429 61.584 181.733 61.584ZM178.097 78.468C177.161 78.468 176.297 78.252 175.505 77.82C174.713 77.388 174.077 76.704 173.597 75.768C173.117 74.808 172.877 73.56 172.877 72.024C172.877 70.584 173.129 69.192 173.633 67.848C174.137 66.48 174.821 65.244 175.685 64.14C176.549 63.036 177.533 62.16 178.637 61.512C179.765 60.864 180.941 60.54 182.165 60.54C183.149 60.54 183.953 60.792 184.577 61.296C185.201 61.776 185.513 62.508 185.513 63.492C185.513 64.98 184.613 66.48 182.813 67.992C181.037 69.48 178.241 70.752 174.425 71.808C174.473 73.56 174.869 74.856 175.613 75.696C176.381 76.512 177.389 76.92 178.637 76.92C179.717 76.92 180.665 76.644 181.481 76.092C182.321 75.54 183.065 74.844 183.713 74.004L184.289 74.436C183.521 75.612 182.621 76.584 181.589 77.352C180.557 78.096 179.393 78.468 178.097 78.468ZM196.862 73.608C196.862 75.12 196.322 76.308 195.242 77.172C194.186 78.036 192.842 78.468 191.21 78.468C189.89 78.468 188.87 78.204 188.15 77.676C187.454 77.124 186.974 76.296 186.71 75.192C186.758 74.952 186.866 74.76 187.034 74.616C187.226 74.448 187.43 74.364 187.646 74.364C188.222 74.364 188.618 74.688 188.834 75.336L189.41 77.244C189.89 77.388 190.418 77.46 190.994 77.46C192.338 77.46 193.394 77.136 194.162 76.488C194.93 75.84 195.314 75.012 195.314 74.004C195.314 73.308 195.122 72.66 194.738 72.06C194.354 71.46 193.634 70.8 192.578 70.08C191.594 69.384 190.814 68.676 190.238 67.956C189.662 67.236 189.374 66.36 189.374 65.328C189.374 63.912 189.866 62.76 190.85 61.872C191.834 60.984 193.118 60.54 194.702 60.54C195.782 60.54 196.682 60.792 197.402 61.296C198.146 61.776 198.638 62.46 198.878 63.348C198.758 63.852 198.434 64.104 197.906 64.104C197.33 64.104 196.91 63.744 196.646 63.024L196.106 61.728C195.698 61.608 195.302 61.548 194.918 61.548C193.574 61.548 192.578 61.872 191.93 62.52C191.282 63.168 190.958 63.96 190.958 64.896C190.958 65.784 191.162 66.48 191.57 66.984C192.002 67.488 192.71 68.112 193.694 68.856C194.87 69.72 195.686 70.5 196.142 71.196C196.622 71.892 196.862 72.696 196.862 73.608ZM206.265 78.468C205.329 78.468 204.429 78.252 203.565 77.82C202.725 77.388 202.029 76.704 201.477 75.768C200.925 74.832 200.649 73.632 200.649 72.168C200.649 70.704 200.865 69.276 201.297 67.884C201.753 66.492 202.377 65.244 203.169 64.14C203.985 63.036 204.933 62.16 206.013 61.512C207.093 60.864 208.257 60.54 209.505 60.54C211.065 60.54 212.385 61.056 213.465 62.088C214.545 63.096 215.085 64.704 215.085 66.912C215.085 68.424 214.857 69.876 214.401 71.268C213.945 72.66 213.309 73.896 212.493 74.976C211.701 76.056 210.765 76.908 209.685 77.532C208.629 78.156 207.489 78.468 206.265 78.468ZM206.481 77.46C207.489 77.46 208.401 77.16 209.217 76.56C210.057 75.96 210.777 75.168 211.377 74.184C212.001 73.2 212.481 72.108 212.817 70.908C213.153 69.708 213.321 68.508 213.321 67.308C213.321 65.268 212.949 63.804 212.205 62.916C211.461 62.028 210.501 61.584 209.325 61.584C208.317 61.584 207.393 61.884 206.553 62.484C205.713 63.06 204.981 63.852 204.357 64.86C203.733 65.844 203.253 66.948 202.917 68.172C202.581 69.396 202.413 70.632 202.413 71.88C202.413 73.824 202.809 75.24 203.601 76.128C204.393 77.016 205.353 77.46 206.481 77.46ZM220.642 78L219.238 78.216L218.986 78L222.262 62.484L218.158 62.34L218.266 61.62L223.702 60.54L224.17 60.9L223.414 64.752C224.278 63.912 225.166 63.18 226.078 62.556C227.014 61.932 227.914 61.44 228.778 61.08C229.666 60.72 230.434 60.54 231.082 60.54C231.85 60.54 232.426 60.756 232.81 61.188C233.194 61.596 233.386 62.172 233.386 62.916C233.386 63.492 233.326 64.056 233.206 64.608C233.086 65.16 232.942 65.772 232.774 66.444L231.01 73.896C230.914 74.304 230.818 74.712 230.722 75.12C230.626 75.504 230.578 75.828 230.578 76.092C230.578 76.644 230.89 76.92 231.514 76.92C232.066 76.92 232.678 76.656 233.35 76.128C234.046 75.6 234.742 74.892 235.438 74.004L236.014 74.436C235.27 75.516 234.43 76.464 233.494 77.28C232.582 78.072 231.574 78.468 230.47 78.468C229.99 78.468 229.594 78.324 229.282 78.036C228.994 77.772 228.85 77.424 228.85 76.992C228.85 76.536 228.886 76.128 228.958 75.768C229.054 75.408 229.186 74.916 229.354 74.292L231.082 66.876C231.202 66.276 231.322 65.7 231.442 65.148C231.562 64.596 231.622 64.104 231.622 63.672C231.622 63.072 231.502 62.652 231.262 62.412C231.022 62.172 230.674 62.052 230.218 62.052C229.402 62.052 228.43 62.352 227.302 62.952C226.198 63.528 224.83 64.5 223.198 65.868L222.154 70.512C221.866 71.76 221.602 73.008 221.362 74.256C221.146 75.48 220.906 76.728 220.642 78Z" fill="black"/>
<path d="M0.96 29V28.6L2.76 28.48C2.77333 28.1333 2.78 27.74 2.78 27.3C2.78 26.86 2.78 26.42 2.78 25.98C2.79333 25.54 2.8 25.1467 2.8 24.8V14.68H0.98V14.28L3.08 14.04L3.4 14.2L3.36 17.04V21C3.85333 20.3867 4.39333 19.96 4.98 19.72C5.58 19.4667 6.14667 19.34 6.68 19.34C7.46667 19.34 8.14667 19.5467 8.72 19.96C9.30667 20.3733 9.76 20.9467 10.08 21.68C10.4 22.4 10.56 23.2267 10.56 24.16C10.56 25.1867 10.3933 26.0867 10.06 26.86C9.74 27.62 9.28 28.2133 8.68 28.64C8.09333 29.0533 7.39333 29.26 6.58 29.26C6.06 29.26 5.51333 29.14 4.94 28.9C4.38 28.66 3.85333 28.2533 3.36 27.68L3.3 29.08L0.96 29ZM6.56 19.84C5.98667 19.84 5.43333 19.9733 4.9 20.24C4.38 20.4933 3.86667 20.9333 3.36 21.56V27.2C3.90667 27.7333 4.42667 28.1267 4.92 28.38C5.41333 28.6333 5.96 28.76 6.56 28.76C7.16 28.76 7.71333 28.6 8.22 28.28C8.72667 27.96 9.13333 27.4667 9.44 26.8C9.76 26.12 9.92 25.24 9.92 24.16C9.92 22.7333 9.6 21.66 8.96 20.94C8.33333 20.2067 7.53333 19.84 6.56 19.84ZM16.8216 29.26C15.8882 29.26 15.1949 28.9867 14.7416 28.44C14.3016 27.8933 14.0882 26.9133 14.1016 25.5L14.1416 20.16L12.3816 20.04V19.64L14.5616 19.52L14.7416 19.76L14.6616 22.52V25.44C14.6616 26.6533 14.8549 27.5 15.2416 27.98C15.6416 28.46 16.2016 28.7 16.9216 28.7C17.5882 28.7 18.2282 28.5133 18.8416 28.14C19.4549 27.7667 20.0149 27.24 20.5216 26.56V20.16L18.8016 20.06V19.64L20.9816 19.52L21.1616 19.76L21.0816 22.52V28.5L22.6616 28.6V29L20.4616 29.12L20.5216 27.1C20.0549 27.7 19.5149 28.2133 18.9016 28.64C18.3016 29.0533 17.6082 29.26 16.8216 29.26ZM27.6919 29.26C27.1452 29.26 26.6519 29.2067 26.2119 29.1C25.7719 28.9933 25.3119 28.84 24.8319 28.64L24.7719 26.62H25.2119L25.4719 28.4C25.7652 28.5333 26.0852 28.6467 26.4319 28.74C26.7785 28.82 27.2119 28.86 27.7319 28.86C28.6652 28.86 29.3652 28.66 29.8319 28.26C30.2985 27.86 30.5319 27.3667 30.5319 26.78C30.5319 26.2867 30.3785 25.8867 30.0719 25.58C29.7785 25.26 29.2119 24.9533 28.3719 24.66L27.4319 24.32C26.7252 24.0533 26.1519 23.7267 25.7119 23.34C25.2852 22.94 25.0719 22.4133 25.0719 21.76C25.0719 21.04 25.3385 20.46 25.8719 20.02C26.4052 19.5667 27.1585 19.34 28.1319 19.34C28.6785 19.34 29.1452 19.4067 29.5319 19.54C29.9185 19.66 30.3385 19.86 30.7919 20.14L30.7519 21.92H30.3119L30.1719 20.34C29.7985 20.1133 29.4385 19.96 29.0919 19.88C28.7585 19.7867 28.4185 19.74 28.0719 19.74C27.2452 19.74 26.6319 19.9333 26.2319 20.32C25.8319 20.6933 25.6319 21.1533 25.6319 21.7C25.6319 22.22 25.7985 22.6333 26.1319 22.94C26.4785 23.2333 26.9852 23.5067 27.6519 23.76L28.6719 24.14C29.5652 24.4733 30.1919 24.8333 30.5519 25.22C30.9119 25.6067 31.0919 26.1 31.0919 26.7C31.0919 27.3933 30.8185 27.9933 30.2719 28.5C29.7252 29.0067 28.8652 29.26 27.6919 29.26ZM33.1475 29V28.6L34.9475 28.5C34.9608 28.1533 34.9675 27.76 34.9675 27.32C34.9675 26.8667 34.9675 26.42 34.9675 25.98C34.9808 25.54 34.9875 25.1467 34.9875 24.8V23.82C34.9875 23.1933 34.9875 22.5667 34.9875 21.94C34.9875 21.3133 34.9742 20.6933 34.9475 20.08H33.0675V19.68L35.3875 19.44L35.5875 19.56L35.5475 21.88V24.8C35.5475 25.1467 35.5475 25.5467 35.5475 26C35.5608 26.44 35.5675 26.88 35.5675 27.32C35.5808 27.76 35.5875 28.1533 35.5875 28.5L37.2075 28.6V29H33.1475ZM35.1275 16.1C34.9542 16.1 34.8008 16.0467 34.6675 15.94C34.5475 15.82 34.4875 15.66 34.4875 15.46C34.4875 15.26 34.5475 15.1067 34.6675 15C34.8008 14.88 34.9542 14.82 35.1275 14.82C35.3008 14.82 35.4475 14.88 35.5675 15C35.7008 15.1067 35.7675 15.26 35.7675 15.46C35.7675 15.66 35.7008 15.82 35.5675 15.94C35.4475 16.0467 35.3008 16.1 35.1275 16.1ZM39.1022 29V28.6L40.9022 28.5C40.9155 28.1533 40.9222 27.76 40.9222 27.32C40.9222 26.8667 40.9222 26.42 40.9222 25.98C40.9355 25.54 40.9422 25.1467 40.9422 24.8V23.82C40.9422 23.1133 40.9355 22.44 40.9222 21.8C40.9222 21.16 40.9089 20.5867 40.8822 20.08H39.0222V19.68L41.2622 19.44L41.4622 19.56L41.5022 21.6C42.2355 20.76 42.9355 20.1733 43.6022 19.84C44.2689 19.5067 44.9022 19.34 45.5022 19.34C46.2489 19.34 46.8355 19.5933 47.2622 20.1C47.7022 20.5933 47.9222 21.4667 47.9222 22.72V24.8C47.9222 25.16 47.9222 25.5667 47.9222 26.02C47.9355 26.46 47.9422 26.9 47.9422 27.34C47.9555 27.7667 47.9622 28.1533 47.9622 28.5L49.5822 28.6V29H45.5222V28.6L47.3222 28.5C47.3355 28.1533 47.3422 27.7667 47.3422 27.34C47.3422 26.9 47.3422 26.46 47.3422 26.02C47.3555 25.5667 47.3622 25.16 47.3622 24.8V22.7C47.3622 21.6733 47.1755 20.9533 46.8022 20.54C46.4289 20.1133 45.9489 19.9 45.3622 19.9C45.0822 19.9 44.7422 19.96 44.3422 20.08C43.9555 20.1867 43.5222 20.4 43.0422 20.72C42.5622 21.0267 42.0489 21.4867 41.5022 22.1V24.8C41.5022 25.1467 41.5022 25.5467 41.5022 26C41.5155 26.44 41.5222 26.88 41.5222 27.32C41.5355 27.76 41.5422 28.1533 41.5422 28.5L43.1622 28.6V29H39.1022ZM55.6125 19.74C54.9325 19.74 54.3258 19.9267 53.7925 20.3C53.2725 20.66 52.8525 21.1467 52.5325 21.76C52.2258 22.36 52.0525 23.0133 52.0125 23.72L58.2125 23.74C58.3592 23.74 58.4592 23.6867 58.5125 23.58C58.5792 23.46 58.6125 23.2533 58.6125 22.96C58.6125 22.4 58.4992 21.88 58.2725 21.4C58.0458 20.9067 57.7058 20.5067 57.2525 20.2C56.8125 19.8933 56.2658 19.74 55.6125 19.74ZM55.7725 29.26C55.0392 29.26 54.3325 29.0867 53.6525 28.74C52.9858 28.3933 52.4325 27.8533 51.9925 27.12C51.5658 26.3733 51.3525 25.42 51.3525 24.26C51.3525 23.2467 51.5525 22.3733 51.9525 21.64C52.3525 20.9067 52.8792 20.34 53.5325 19.94C54.1858 19.54 54.8792 19.34 55.6125 19.34C56.3858 19.34 57.0392 19.5133 57.5725 19.86C58.1058 20.1933 58.5125 20.64 58.7925 21.2C59.0725 21.76 59.2125 22.3667 59.2125 23.02C59.2125 23.4733 59.1725 23.8533 59.0925 24.16L51.9925 24.14C52.0058 25.2333 52.1925 26.12 52.5525 26.8C52.9258 27.48 53.3992 27.9733 53.9725 28.28C54.5458 28.5867 55.1458 28.74 55.7725 28.74C57.0525 28.74 58.0992 28.3133 58.9125 27.46L59.1325 27.68C58.7325 28.1733 58.2325 28.56 57.6325 28.84C57.0458 29.12 56.4258 29.26 55.7725 29.26ZM64.1567 29.26C63.6101 29.26 63.1167 29.2067 62.6767 29.1C62.2367 28.9933 61.7767 28.84 61.2967 28.64L61.2367 26.62H61.6767L61.9367 28.4C62.2301 28.5333 62.5501 28.6467 62.8967 28.74C63.2434 28.82 63.6767 28.86 64.1967 28.86C65.1301 28.86 65.8301 28.66 66.2967 28.26C66.7634 27.86 66.9967 27.3667 66.9967 26.78C66.9967 26.2867 66.8434 25.8867 66.5367 25.58C66.2434 25.26 65.6767 24.9533 64.8367 24.66L63.8967 24.32C63.1901 24.0533 62.6167 23.7267 62.1767 23.34C61.7501 22.94 61.5367 22.4133 61.5367 21.76C61.5367 21.04 61.8034 20.46 62.3367 20.02C62.8701 19.5667 63.6234 19.34 64.5967 19.34C65.1434 19.34 65.6101 19.4067 65.9967 19.54C66.3834 19.66 66.8034 19.86 67.2567 20.14L67.2167 21.92H66.7767L66.6367 20.34C66.2634 20.1133 65.9034 19.96 65.5567 19.88C65.2234 19.7867 64.8834 19.74 64.5367 19.74C63.7101 19.74 63.0967 19.9333 62.6967 20.32C62.2967 20.6933 62.0967 21.1533 62.0967 21.7C62.0967 22.22 62.2634 22.6333 62.5967 22.94C62.9434 23.2333 63.4501 23.5067 64.1167 23.76L65.1367 24.14C66.0301 24.4733 66.6567 24.8333 67.0167 25.22C67.3767 25.6067 67.5567 26.1 67.5567 26.7C67.5567 27.3933 67.2834 27.9933 66.7367 28.5C66.1901 29.0067 65.3301 29.26 64.1567 29.26ZM72.6723 29.26C72.1257 29.26 71.6323 29.2067 71.1923 29.1C70.7523 28.9933 70.2923 28.84 69.8123 28.64L69.7523 26.62H70.1923L70.4523 28.4C70.7457 28.5333 71.0657 28.6467 71.4123 28.74C71.759 28.82 72.1923 28.86 72.7123 28.86C73.6457 28.86 74.3457 28.66 74.8123 28.26C75.279 27.86 75.5123 27.3667 75.5123 26.78C75.5123 26.2867 75.359 25.8867 75.0523 25.58C74.759 25.26 74.1923 24.9533 73.3523 24.66L72.4123 24.32C71.7057 24.0533 71.1323 23.7267 70.6923 23.34C70.2657 22.94 70.0523 22.4133 70.0523 21.76C70.0523 21.04 70.319 20.46 70.8523 20.02C71.3857 19.5667 72.139 19.34 73.1123 19.34C73.659 19.34 74.1257 19.4067 74.5123 19.54C74.899 19.66 75.319 19.86 75.7723 20.14L75.7323 21.92H75.2923L75.1523 20.34C74.779 20.1133 74.419 19.96 74.0723 19.88C73.739 19.7867 73.399 19.74 73.0523 19.74C72.2257 19.74 71.6123 19.9333 71.2123 20.32C70.8123 20.6933 70.6123 21.1533 70.6123 21.7C70.6123 22.22 70.779 22.6333 71.1123 22.94C71.459 23.2333 71.9657 23.5067 72.6323 23.76L73.6523 24.14C74.5457 24.4733 75.1723 24.8333 75.5323 25.22C75.8923 25.6067 76.0723 26.1 76.0723 26.7C76.0723 27.3933 75.799 27.9933 75.2523 28.5C74.7057 29.0067 73.8457 29.26 72.6723 29.26ZM90.6289 29.26C90.1756 29.26 89.8422 29.0867 89.6289 28.74C89.4289 28.3933 89.3022 27.8933 89.2489 27.24C88.6356 27.92 88.0622 28.4267 87.5289 28.76C87.0089 29.0933 86.4089 29.26 85.7289 29.26C85.0222 29.26 84.4356 29.06 83.9689 28.66C83.5022 28.2467 83.2689 27.6667 83.2689 26.92C83.2689 26.2 83.5222 25.6 84.0289 25.12C84.5356 24.64 85.2756 24.24 86.2489 23.92C86.7556 23.76 87.2622 23.62 87.7689 23.5C88.2756 23.38 88.7622 23.2667 89.2289 23.16V22.52C89.2289 21.7733 89.1356 21.2 88.9489 20.8C88.7756 20.4 88.5089 20.1267 88.1489 19.98C87.7889 19.82 87.3422 19.74 86.8089 19.74C86.0489 19.74 85.3622 19.94 84.7489 20.34L84.4289 21.54C84.3622 21.8333 84.2022 21.98 83.9489 21.98C83.7222 21.98 83.5756 21.8533 83.5089 21.6C83.7222 20.8533 84.1222 20.2933 84.7089 19.92C85.2956 19.5333 86.0089 19.34 86.8489 19.34C87.8222 19.34 88.5556 19.5667 89.0489 20.02C89.5422 20.4733 89.7889 21.2067 89.7889 22.22V26.76C89.7889 27.5467 89.8756 28.08 90.0489 28.36C90.2222 28.64 90.4689 28.78 90.7889 28.78C90.9222 28.78 91.0556 28.76 91.1889 28.72C91.3222 28.6667 91.4756 28.5733 91.6489 28.44L91.8489 28.72C91.6889 28.88 91.5022 29.0067 91.2889 29.1C91.0756 29.2067 90.8556 29.26 90.6289 29.26ZM83.8689 26.8C83.8689 27.4133 84.0489 27.8933 84.4089 28.24C84.7822 28.5733 85.2756 28.74 85.8889 28.74C86.4356 28.74 86.9622 28.5867 87.4689 28.28C87.9756 27.9733 88.5622 27.4667 89.2289 26.76V23.52C88.7489 23.64 88.2489 23.7733 87.7289 23.92C87.2222 24.0533 86.7356 24.2067 86.2689 24.38C84.6689 24.9667 83.8689 25.7733 83.8689 26.8ZM93.0866 29V28.6L94.8866 28.5C94.8999 28.1533 94.9066 27.76 94.9066 27.32C94.9066 26.8667 94.9066 26.42 94.9066 25.98C94.9199 25.54 94.9266 25.1467 94.9266 24.8V23.82C94.9266 23.1133 94.9199 22.44 94.9066 21.8C94.9066 21.16 94.8932 20.5867 94.8666 20.08H93.0066V19.68L95.2466 19.44L95.4466 19.56L95.4866 21.6C96.2199 20.76 96.9199 20.1733 97.5866 19.84C98.2532 19.5067 98.8866 19.34 99.4866 19.34C100.233 19.34 100.82 19.5933 101.247 20.1C101.687 20.5933 101.907 21.4667 101.907 22.72V24.8C101.907 25.16 101.907 25.5667 101.907 26.02C101.92 26.46 101.927 26.9 101.927 27.34C101.94 27.7667 101.947 28.1533 101.947 28.5L103.567 28.6V29H99.5066V28.6L101.307 28.5C101.32 28.1533 101.327 27.7667 101.327 27.34C101.327 26.9 101.327 26.46 101.327 26.02C101.34 25.5667 101.347 25.16 101.347 24.8V22.7C101.347 21.6733 101.16 20.9533 100.787 20.54C100.413 20.1133 99.9332 19.9 99.3466 19.9C99.0666 19.9 98.7266 19.96 98.3266 20.08C97.9399 20.1867 97.5066 20.4 97.0266 20.72C96.5466 21.0267 96.0332 21.4867 95.4866 22.1V24.8C95.4866 25.1467 95.4866 25.5467 95.4866 26C95.4999 26.44 95.5066 26.88 95.5066 27.32C95.5199 27.76 95.5266 28.1533 95.5266 28.5L97.1466 28.6V29H93.0866ZM112.797 29.26C112.344 29.26 112.01 29.0867 111.797 28.74C111.597 28.3933 111.47 27.8933 111.417 27.24C110.804 27.92 110.23 28.4267 109.697 28.76C109.177 29.0933 108.577 29.26 107.897 29.26C107.19 29.26 106.604 29.06 106.137 28.66C105.67 28.2467 105.437 27.6667 105.437 26.92C105.437 26.2 105.69 25.6 106.197 25.12C106.704 24.64 107.444 24.24 108.417 23.92C108.924 23.76 109.43 23.62 109.937 23.5C110.444 23.38 110.93 23.2667 111.397 23.16V22.52C111.397 21.7733 111.304 21.2 111.117 20.8C110.944 20.4 110.677 20.1267 110.317 19.98C109.957 19.82 109.51 19.74 108.977 19.74C108.217 19.74 107.53 19.94 106.917 20.34L106.597 21.54C106.53 21.8333 106.37 21.98 106.117 21.98C105.89 21.98 105.744 21.8533 105.677 21.6C105.89 20.8533 106.29 20.2933 106.877 19.92C107.464 19.5333 108.177 19.34 109.017 19.34C109.99 19.34 110.724 19.5667 111.217 20.02C111.71 20.4733 111.957 21.2067 111.957 22.22V26.76C111.957 27.5467 112.044 28.08 112.217 28.36C112.39 28.64 112.637 28.78 112.957 28.78C113.09 28.78 113.224 28.76 113.357 28.72C113.49 28.6667 113.644 28.5733 113.817 28.44L114.017 28.72C113.857 28.88 113.67 29.0067 113.457 29.1C113.244 29.2067 113.024 29.26 112.797 29.26ZM106.037 26.8C106.037 27.4133 106.217 27.8933 106.577 28.24C106.95 28.5733 107.444 28.74 108.057 28.74C108.604 28.74 109.13 28.5867 109.637 28.28C110.144 27.9733 110.73 27.4667 111.397 26.76V23.52C110.917 23.64 110.417 23.7733 109.897 23.92C109.39 24.0533 108.904 24.2067 108.437 24.38C106.837 24.9667 106.037 25.7733 106.037 26.8ZM115.155 29V28.6L117.155 28.5C117.168 28.1533 117.175 27.76 117.175 27.32C117.175 26.8667 117.175 26.42 117.175 25.98C117.188 25.54 117.195 25.1467 117.195 24.8V14.68H115.375V14.28L117.515 14.04L117.795 14.2L117.755 17.04V24.8C117.755 25.1467 117.755 25.5467 117.755 26C117.768 26.44 117.775 26.88 117.775 27.32C117.788 27.76 117.795 28.1533 117.795 28.5L119.715 28.6V29H115.155ZM126.454 20V19.6H130.114V20L128.754 20.1L124.894 30.5C124.441 31.7133 123.894 32.6133 123.254 33.2C122.627 33.8 121.967 34.1 121.274 34.1C120.981 34.1 120.694 34.0533 120.414 33.96C120.134 33.8667 119.954 33.7133 119.874 33.5C119.941 33.2333 120.154 33.1 120.514 33.1C120.674 33.1 120.841 33.14 121.014 33.22C121.201 33.3 121.381 33.4067 121.554 33.54L121.714 33.66C122.261 33.5267 122.774 33.18 123.254 32.62C123.734 32.06 124.141 31.34 124.474 30.46L124.954 29.16L121.454 20.1L119.974 20V19.6H123.854V20L122.114 20.1L125.214 28.46L128.234 20.12L126.454 20ZM134.518 29.26C133.784 29.26 133.278 29.06 132.998 28.66C132.718 28.26 132.578 27.6867 132.578 26.94C132.578 26.66 132.578 26.42 132.578 26.22C132.591 26.02 132.598 25.7867 132.598 25.52V20.08H130.398V19.68L132.578 19.58L132.798 16.62H133.238L133.158 19.6H136.058V20.08H133.158V26.88C133.158 27.5467 133.278 28.0333 133.518 28.34C133.758 28.6333 134.111 28.78 134.578 28.78C134.911 28.78 135.184 28.7533 135.398 28.7C135.611 28.6333 135.844 28.54 136.098 28.42L136.238 28.7C135.784 29.0733 135.211 29.26 134.518 29.26ZM137.698 29V28.6L139.498 28.5C139.512 28.1533 139.518 27.76 139.518 27.32C139.518 26.8667 139.518 26.42 139.518 25.98C139.532 25.54 139.538 25.1467 139.538 24.8V23.82C139.538 23.1933 139.538 22.5667 139.538 21.94C139.538 21.3133 139.525 20.6933 139.498 20.08H137.618V19.68L139.938 19.44L140.138 19.56L140.098 21.88V24.8C140.098 25.1467 140.098 25.5467 140.098 26C140.112 26.44 140.118 26.88 140.118 27.32C140.132 27.76 140.138 28.1533 140.138 28.5L141.758 28.6V29H137.698ZM139.678 16.1C139.505 16.1 139.352 16.0467 139.218 15.94C139.098 15.82 139.038 15.66 139.038 15.46C139.038 15.26 139.098 15.1067 139.218 15C139.352 14.88 139.505 14.82 139.678 14.82C139.852 14.82 139.998 14.88 140.118 15C140.252 15.1067 140.318 15.26 140.318 15.46C140.318 15.66 140.252 15.82 140.118 15.94C139.998 16.0467 139.852 16.1 139.678 16.1ZM148.233 29.26C147.38 29.26 146.62 29.0533 145.953 28.64C145.286 28.2133 144.766 27.6267 144.393 26.88C144.02 26.1333 143.833 25.2733 143.833 24.3C143.833 23.2467 144.046 22.3533 144.473 21.62C144.913 20.8867 145.48 20.3267 146.173 19.94C146.866 19.54 147.606 19.34 148.393 19.34C149.1 19.34 149.74 19.5133 150.313 19.86C150.886 20.2067 151.32 20.7333 151.613 21.44C151.546 21.7067 151.4 21.84 151.173 21.84C150.92 21.84 150.746 21.7133 150.653 21.46L150.193 20.28C149.873 20.08 149.566 19.94 149.273 19.86C148.98 19.78 148.673 19.74 148.353 19.74C147.633 19.74 146.98 19.9333 146.393 20.32C145.806 20.6933 145.34 21.22 144.993 21.9C144.646 22.58 144.473 23.3733 144.473 24.28C144.473 25.1467 144.633 25.92 144.953 26.6C145.286 27.2667 145.74 27.7933 146.313 28.18C146.886 28.5533 147.54 28.74 148.273 28.74C148.86 28.74 149.42 28.6333 149.953 28.42C150.5 28.1933 150.986 27.86 151.413 27.42L151.633 27.62C151.233 28.1 150.76 28.4933 150.213 28.8C149.666 29.1067 149.006 29.26 148.233 29.26ZM156.579 29.26C156.032 29.26 155.539 29.2067 155.099 29.1C154.659 28.9933 154.199 28.84 153.719 28.64L153.659 26.62H154.099L154.359 28.4C154.652 28.5333 154.972 28.6467 155.319 28.74C155.665 28.82 156.099 28.86 156.619 28.86C157.552 28.86 158.252 28.66 158.719 28.26C159.185 27.86 159.419 27.3667 159.419 26.78C159.419 26.2867 159.265 25.8867 158.959 25.58C158.665 25.26 158.099 24.9533 157.259 24.66L156.319 24.32C155.612 24.0533 155.039 23.7267 154.599 23.34C154.172 22.94 153.959 22.4133 153.959 21.76C153.959 21.04 154.225 20.46 154.759 20.02C155.292 19.5667 156.045 19.34 157.019 19.34C157.565 19.34 158.032 19.4067 158.419 19.54C158.805 19.66 159.225 19.86 159.679 20.14L159.639 21.92H159.199L159.059 20.34C158.685 20.1133 158.325 19.96 157.979 19.88C157.645 19.7867 157.305 19.74 156.959 19.74C156.132 19.74 155.519 19.9333 155.119 20.32C154.719 20.6933 154.519 21.1533 154.519 21.7C154.519 22.22 154.685 22.6333 155.019 22.94C155.365 23.2333 155.872 23.5067 156.539 23.76L157.559 24.14C158.452 24.4733 159.079 24.8333 159.439 25.22C159.799 25.6067 159.979 26.1 159.979 26.7C159.979 27.3933 159.705 27.9933 159.159 28.5C158.612 29.0067 157.752 29.26 156.579 29.26Z" fill="black"/>
</svg>
